<svg width="512" height="512" viewBox="0 0 512 512" fill="none" xmlns="http://www.w3.org/2000/svg">
  <path
    d="M456 340L280 440C268 448 244 448 232 440L56 340C44 332 36 316 36 304V304C36 292 44 276 56 268L232 168C244 160 268 160 280 168L456 268C468 276 476 292 476 304V304C476 316 468 332 456 340Z"
    fill="#8a8a8a"
    stroke="#1e1e1e"
    stroke-width="12"
    stroke-linecap="round"
    stroke-linejoin="round"
  />
  <path
    d="M456 260L280 360C268 368 244 368 232 360L56 260C44 252 36 236 36 224V224C36 212 44 196 56 188L232 88C244 80 268 80 280 88L456 188C468 196 476 212 476 224V224C476 236 468 252 456 260Z"
    fill="#cfa738"
    stroke="#1e1e1e"
    stroke-width="12"
    stroke-linecap="round"
    stroke-linejoin="round"
  />
  <path
    d="M456 180L280 280C268 288 244 288 232 280L56 180C44 172 36 156 36 144V144C36 132 44 116 56 108L232 8C244 0 268 0 280 8L456 108C468 116 476 132 476 144V144C476 156 468 172 456 180Z"
    fill="#fff3cd"
    stroke="#1e1e1e"
    stroke-width="12"
    stroke-linecap="round"
    stroke-linejoin="round"
  />
</svg>